<svg width="114" height="70" viewBox="0 0 114 70" fill="none" xmlns="http://www.w3.org/2000/svg">
    <path d="M24.416 69.864C19.872 69.864 15.744 68.968 12.032 67.176C8.384 65.384 5.504 62.92 3.392 59.784C1.344 56.584 0.32 53.032 0.32 49.128C0.32 47.08 1.12 45.576 2.72 44.616C4.384 43.656 6.624 43.176 9.44 43.176C9.248 44.328 9.152 45.544 9.152 46.824C9.152 51.56 10.496 55.24 13.184 57.864C15.872 60.488 19.616 61.8 24.416 61.8C29.28 61.8 33.056 60.456 35.744 57.768C38.432 55.016 39.776 51.208 39.776 46.344V9.768H28.16C23.552 9.768 21.248 7.112 21.248 1.8H44.48C45.696 1.8 46.72 2.216 47.552 3.048C48.384 3.816 48.8 4.808 48.8 6.024V46.344C48.8 50.824 47.744 54.856 45.632 58.44C43.584 62.024 40.704 64.84 36.992 66.888C33.28 68.872 29.088 69.864 24.416 69.864ZM61.3138 8.712C61.3138 6.28 62.0498 4.392 63.5218 3.048C65.0578 1.64 67.1698 0.935995 69.8578 0.935995L107.106 57.576L107.778 57L104.994 52.392V0.935995C107.938 0.935995 110.146 1.576 111.618 2.856C113.154 4.136 113.922 5.992 113.922 8.424V62.76C113.922 64.808 113.186 66.504 111.714 67.848C110.306 69.192 108.482 69.864 106.242 69.864L68.1298 11.976L67.4578 12.552L70.2418 17.16V62.376C70.2418 64.808 69.4738 66.664 67.9378 67.944C66.4658 69.224 64.2578 69.864 61.3138 69.864V8.712Z" fill="black"/>
</svg>
